# xmcd CD database file
#
# Track frame offsets:
#	150
#	11538
#	23138
#	38380
#	51667
#	69063
#	79606
#	91531
#	106861
#	118949
#
# Disc length: 1809 seconds
#
# Revision: 1
# Processed by: cddbd v1.5.2PL0 Copyright (c) Steve Scherf et al.
# Submitted via: CDex 1.51
#
DISCID=69070f0a
DTITLE=Buddy Jewell - My Father's Country
DYEAR=2015
DGENRE=Country
TTITLE0=Is Anybody Going To San Antone
TTITLE1=Galveston
TTITLE2=In The Misty Moonlight
TTITLE3=Behind Closed Doors
TTITLE4=I've Always Been Crazy
TTITLE5=Abilene
TTITLE6=Singing The Blues
TTITLE7=Green Green Grass of Home
TTITLE8=If We Make It Through December
TTITLE9=Smokey Mountain Memories
EXTD=YEAR: 2015
EXTT0=
EXTT1=
EXTT2=
EXTT3=
EXTT4=
EXTT5=
EXTT6=
EXTT7=
EXTT8=
EXTT9=
PLAYORDER=
